# xmcd
#
# Track frame offsets:
#	150
#	11557
#	21217
#	36862
#	49285
#	63712
#	81052
#	93940
#	106785
#	123505
#	137752
#	152587
#	162500
#	179965
#
# Disc length: 2564 seconds
#
# Revision: 1
# Processed by: cddbd v1.5.2PL0 Copyright (c) Steve Scherf et al.
# Submitted via: EZCDAudioConverter 2.1.5.1
#
DISCID=bc0a020e
DTITLE=Straight Clean and Simple - Iron Lady
DYEAR=1991
DGENRE=Country
TTITLE0=What You Get Is What You See
TTITLE1=Old Pine Tree
TTITLE2=Iron Lady
TTITLE3=Misty Blue
TTITLE4=Picking Lonely Guitar Blues
TTITLE5=Every Goodbye Means Hello
TTITLE6=Don't Worry About Me
TTITLE7=Put The Blame Of Me
TTITLE8=Better Side Of Me
TTITLE9=Little Bit Of Crazy
TTITLE10=Here She Comes
TTITLE11=Alberta Rocky Mountain Spring
TTITLE12=Life After Thirty
TTITLE13=Hillibilly Cowboy
EXTD=
EXTT0=
EXTT1=
EXTT2=
EXTT3=
EXTT4=
EXTT5=
EXTT6=
EXTT7=
EXTT8=
EXTT9=
EXTT10=
EXTT11=
EXTT12=
EXTT13=
PLAYORDER=
